<?xml version="1.0" encoding="utf-8"?>
<!DOCTYPE svg PUBLIC "-//W3C//DTD SVG 1.0//EN" "http://www.w3.org/TR/2001/REC-SVG-20010904/DTD/svg10.dtd">
<svg version="1.0" xmlns="http://www.w3.org/2000/svg" width="1536px" height="1024px" viewBox="0 0 1536 1024" preserveAspectRatio="xMidYMid meet">
 <defs>
  <linearGradient id="logo-main" x1="0%" y1="0%" x2="100%" y2="100%">
   <stop offset="0%" stop-color="#1c3d50"/>
   <stop offset="35%" stop-color="#1c9dbb"/>
   <stop offset="65%" stop-color="#94d2bd"/>
   <stop offset="100%" stop-color="#1c9dbb"/>
  </linearGradient>
 </defs>
 <g fill="url(#logo-main)">
  <path d="M433.5 887.3 c-29.6 -2.3 -44 -4.2 -66.5 -8.8 -42.1 -8.5 -71.6 -21.3 -81.1 -35.1 -1.6 -2.4 -4.3 -7.9 -6 -12.3 -2.3 -6 -4.1 -8.9 -7.3 -11.9 -7.5 -6.9 -16.2 -9.2 -53.1 -14.2 -60.4 -8.1 -79.8 -13.9 -92.4 -27.5 -6.3 -6.9 -7.5 -10.3 -7.5 -23 -0.1 -10.2 0.1 -11.4 2.8 -17 3.8 -7.7 14 -18 22.6 -22.7 13.6 -7.5 30.7 -12.3 58 -16.3 33.9 -4.9 48.8 -10.4 53.5 -19.5 1.4 -2.7 1.3 -3 -0.9 -5.7 -1.3 -1.5 -6.2 -4.8 -11 -7.2 -12 -6.2 -13 -7.5 -13.4 -16.9 -0.3 -7.1 -0.1 -8.1 2.6 -12.2 3.5 -5.5 12.6 -10.7 24.1 -13.9 14.4 -4 39.4 -7.3 56.6 -7.5 l16 -0.1 0 5 0 5 -7 0.2 c-12.2 0.4 -29.6 2.4 -43.2 4.9 -19.8 3.6 -33 8.9 -36.9 14.9 -1.6 2.4 -1.6 2.7 0.2 4.6 1.1 1.2 5.1 3.7 8.9 5.6 13.6 6.8 16.5 10.5 16.5 21 0 16.5 -13.7 25.5 -47.1 30.8 -5.7 0.9 -16.2 2.5 -23.4 3.7 -26 4.1 -44.7 11.4 -55.6 21.6 -12.2 11.4 -15.3 21.7 -9.5 31.5 8.3 14.4 31.5 22 90.5 29.7 27.2 3.6 37.5 5.4 45 8.2 11.3 4.3 17.3 9.7 20.5 19 4.4 12.3 7.9 17.1 17.6 23.5 19.5 13.1 60.9 24.4 109.5 30 20.2 2.3 78.4 2.6 93.5 0.5 33.4 -4.7 54.6 -12.8 76.5 -29.2 7.6 -5.8 16.4 -11.2 24 -14.9 6.6 -3.2 19.1 -9.4 27.9 -13.6 13.8 -6.8 16.7 -8.6 22.6 -14.4 15.7 -15.5 16.8 -32.6 2.9 -46.1 -5.2 -5 -10.2 -7.9 -21.9 -12.4 -23.4 -9 -26.4 -13.2 -22.4 -30.7 1.8 -8.2 1.1 -13.1 -3.4 -21.3 -11.6 -21.2 -55.7 -36.2 -120.7 -40.9 l-17 -1.2 -0.3 -4.8 c-0.2 -3.6 0.1 -4.9 1.3 -5.4 2.4 -0.9 35.7 1.5 51.6 3.7 42.2 5.9 72.8 16.4 86.7 29.8 11.1 10.7 15.5 24.6 13.2 41.3 -0.6 4.9 -0.9 9.3 -0.5 9.9 0.9 1.5 9.5 5.7 18.8 9.1 17.4 6.4 27.1 14 32.5 25.6 2.5 5.3 2.7 6.8 2.7 18.3 0 11.5 -0.2 12.9 -2.7 18.4 -7.8 16.4 -19.8 25.7 -50 38.4 -15.5 6.6 -22.6 10.6 -35.5 20.3 -12.9 9.7 -19 13.3 -30.3 18.2 -16.9 7.2 -36.5 11.5 -61.3 13.6 -11.4 1 -60.8 1.3 -71.2 0.4z"/>
  <path d="M1152.5 767.3 c-29.3 -2.3 -47.1 -4.7 -65 -9 -32.5 -7.7 -51.9 -19.1 -57.5 -34 -2.8 -7.4 -2.5 -18.6 0.7 -24.8 9.5 -18.3 40 -35.1 77.3 -42.5 27.6 -5.5 47.7 -6.3 113.8 -4.6 35.2 0.9 35.2 0.9 35.8 3.1 0.3 1.3 0.4 3.6 0.2 5.1 l-0.3 2.9 -22.5 -0.1 c-12.4 -0.1 -37.1 -0.3 -55 -0.5 -26.8 -0.3 -34.8 0 -45.5 1.4 -23.9 3.3 -42.7 8.4 -59.2 16.2 -18.3 8.6 -29.5 17.5 -33.8 26.7 -2.6 5.5 -2.3 8.2 1.5 14.3 13.4 21.7 74.1 36.4 146 35.4 l24.5 -0.4 0 5 0 5 -5 0.7 c-4.9 0.6 -48.2 0.8 -56 0.1z"/>
  <path d="M381.3 745 c-1.8 -0.4 -4.5 -1.5 -5.9 -2.5 l-2.7 -1.7 0.6 -17.2 c0.4 -9.4 1 -21.7 1.3 -27.3 l0.7 -10.3 -17.1 0 c-9.4 0 -17.7 -0.3 -18.6 -0.6 -3 -1.2 -1.8 -7.9 3.8 -22.2 2.9 -7.5 7.4 -19.1 9.9 -25.7 2.5 -6.6 5.3 -13.7 6.1 -15.7 l1.6 -3.8 -7.6 0 -7.6 0 0.4 -6.2 c0.3 -4.2 1.5 -8.6 3.6 -13.3 2.5 -5.6 7.6 -18.7 17.9 -46.2 0.3 -0.8 -1.5 -1.3 -6.4 -1.5 l-6.8 -0.3 -0.3 -4 c-0.2 -3.1 2.3 -10.7 11.4 -34.5 11.8 -31.1 19.2 -50.5 19.9 -52.8 0.3 -0.9 2 -1.2 5 -1 l4.6 0.3 7.3 18.5 c18.7 47.1 24.6 63.7 24.6 68.9 l0 5.1 -7 0 -6.9 0 2.8 7.8 c1.6 4.2 6.6 17.3 11.1 29.1 6.3 16.6 8 22.3 7.8 25.5 l-0.3 4.1 -6.7 0.3 c-3.8 0.2 -6.8 0.7 -6.8 1.2 0 0.5 0.9 3.3 2.1 6.2 11.3 28.4 19.1 50.8 19.2 55.3 l0.2 5 -17.9 0.3 -17.9 0.2 0.6 12.3 c2.2 40.8 2.2 41.2 -0.2 43.4 -4.1 3.8 -16.9 5.4 -25.8 3.3z m14.3 -11 l2.7 -1 -0.7 -10.8 c-0.3 -5.9 -0.9 -16.4 -1.2 -23.4 l-0.7 -12.8 -4.7 0 -4.7 0 -0.6 11.3 c-0.4 6.1 -1 16.7 -1.3 23.4 l-0.7 12.3 2.4 0.9 c3.2 1.3 6.2 1.3 9.5 0.1z m31 -65.2 c-8.6 -22.4 -12.5 -33 -14.1 -37.8 -1 -3 -2.8 -7.6 -4.1 -10.2 -2.6 -5.1 -3.1 -10.7 -1.2 -12.6 0.7 -0.7 4 -1.2 7.6 -1.2 5.7 0 6.3 -0.2 5.7 -1.7 -0.4 -1 -4.4 -11.7 -9 -23.8 -4.6 -12.1 -9.3 -24.2 -10.5 -26.9 -1.3 -3.1 -2 -6.5 -1.8 -9 l0.3 -4.1 7.1 -0.3 7.1 -0.3 -11.2 -28.9 c-6.1 -15.9 -11.3 -29.2 -11.6 -29.5 -0.3 -0.3 -3.4 7 -6.9 16.3 -3.5 9.2 -8.5 22.3 -11.1 29.2 l-4.8 12.5 6.7 0.5 6.7 0.5 0.3 4.3 c0.2 3.2 -0.6 6.7 -3.2 13 -2 4.8 -6.7 17 -10.7 27.2 -3.9 10.2 -7.3 19.1 -7.6 19.8 -0.4 0.9 1 1.2 5 1.2 8.1 0 8.7 0.4 8.7 5.9 0 3.3 -1.4 8.4 -4.4 16.2 -2.5 6.3 -7.2 18.6 -10.6 27.4 -3.4 8.8 -6.4 16.6 -6.7 17.3 -0.4 0.9 7.6 1.2 38.1 1.2 l38.6 0 -2.4 -6.2z"/>
  <path d="M494.7 620 c-6.2 -1.9 -6.1 -1.2 -5.3 -26.7 l0.6 -23.3 -16.8 0 c-11.7 0 -17.2 -0.4 -18 -1.2 -2.3 -2.3 -1.2 -9.2 3.9 -23.7 4.2 -11.9 11.8 -32.3 15.4 -41.3 0.6 -1.6 0 -1.8 -6.9 -1.8 l-7.6 0 0 -4.4 c0 -3 2.1 -9.9 6.6 -21.7 6.5 -17.2 15.4 -41.7 15.4 -42.4 0 -0.2 -3.3 -0.5 -7.2 -0.7 l-7.3 -0.3 -0.3 -3.6 c-0.2 -2 0.6 -5.6 1.9 -8.5 2.2 -5.1 30.7 -79.5 31.6 -82.7 0.5 -1.5 1.5 -1.7 5.5 -1.5 l5 0.3 4.3 13 c2.3 7.2 9.7 27.4 16.4 44.9 8.3 21.6 12.1 32.9 11.9 35 l-0.3 3.1 -7.3 0.3 c-6.5 0.3 -7.3 0.5 -6.7 2 12.9 33.1 21.5 58 21.5 62.3 l0 4.9 -7.5 0 c-4.1 0 -7.5 0.3 -7.5 0.6 0 0.3 2.3 6.7 5.1 14.2 12.7 34 15 41.4 14.7 47.2 l-0.3 5.5 -17 0.3 -17 0.2 0.6 22.8 c0.3 12.5 0.2 23.4 -0.2 24.3 -0.5 0.9 -2.3 2.2 -4 2.8 -3.7 1.3 -19.1 1.3 -23.2 0.1z m16.8 -14.7 c-0.1 -2.4 -0.2 -11.3 -0.3 -19.8 l-0.2 -15.5 -4.8 0 -4.9 0 -0.6 11.3 c-1.1 17.9 -0.9 27.5 0.6 28.1 0.6 0.3 3.2 0.4 5.7 0.3 l4.5 -0.2 0 -4.2z m25.1 -64.5 c-3.5 -10.1 -8.2 -23.1 -10.5 -29 -4.6 -12 -5.3 -18.1 -2.2 -19.8 1.1 -0.5 4.5 -1 7.5 -1 3.1 0 5.6 -0.3 5.6 -0.7 0 -0.4 -4.9 -13.6 -11 -29.3 -8.4 -21.8 -11 -29.8 -11 -33.3 l0 -4.7 7 0 c3.9 0 7 -0.4 7 -0.9 0 -0.5 -3.3 -9.4 -7.4 -19.8 -4.1 -10.3 -9.1 -23.7 -11.2 -29.8 -2 -6 -4 -11.3 -4.4 -11.8 -0.3 -0.4 -3.2 6.4 -6.5 15 -3.2 8.7 -8.6 22.9 -12 31.5 l-6.3 15.7 7.2 0.3 7.1 0.3 -0.1 5.5 c0 4.4 -1.9 10.6 -9.6 31 -5.3 14 -10.1 26.7 -10.7 28.3 l-1.1 2.7 5.6 0 c7.4 0 9.4 1.2 9.4 5.5 0 1.9 -3.2 11.9 -7.1 22.2 -3.9 10.3 -8.8 23.6 -10.9 29.6 l-3.9 10.7 37.9 0 37.9 0 -6.3 -18.2z"/>
  <path d="M1313.5 611.8 c-6.4 -1.8 -7.9 -1.8 -16.6 -0.7 -5.3 0.6 -10.4 0.9 -11.3 0.6 -1.2 -0.5 -1.6 -2 -1.6 -5.7 0 -2.7 0.4 -5 0.9 -5 0.5 0 1.1 -8 1.5 -17.7 0.3 -9.8 0.9 -21.3 1.2 -25.5 l0.6 -7.8 -17.8 -0.2 -17.9 -0.3 -0.3 -4.9 c-0.3 -5.1 3.1 -15.8 16.7 -51.9 l5.8 -15.2 -7.1 -0.3 c-3.8 -0.2 -7.6 -0.8 -8.3 -1.4 -2.2 -1.8 -1.5 -6 3.3 -17.8 4.3 -10.7 18.4 -48.7 18.4 -49.6 0 -0.2 -2.4 -0.4 -5.3 -0.4 -5.9 0 -7.7 -1.2 -7.7 -4.9 0 -1.5 6.9 -20.4 15.3 -42.1 l15.2 -39.5 4.6 -0.3 c2.9 -0.2 5 0.2 5.6 1 0.6 0.7 5.8 13.9 11.8 29.3 5.9 15.4 12.5 32.4 14.7 37.7 2.9 7.2 3.8 10.8 3.6 14 l-0.3 4.3 -5.9 0.3 c-4.9 0.3 -5.7 0.6 -5.3 2 0.3 0.9 5.5 14.7 11.6 30.6 6.1 15.9 11.1 30.1 11.1 31.6 0 4.1 -1.7 5 -9.7 5 -4 0 -7.3 0.2 -7.3 0.5 0 0.2 1.2 3 2.6 6.2 1.4 3.2 6.6 16.9 11.5 30.5 7.8 21.4 9 25.5 8.7 30 l-0.3 5.3 -17.4 0.3 -17.4 0.2 0.7 13.3 c0.3 7.2 0.9 18.7 1.3 25.4 l0.6 12.3 3.6 1.7 c3.3 1.7 3.6 2.1 3.6 6.3 l0 4.5 -5 0.1 c-2.7 0.1 -8.1 -0.7 -12 -1.8z m-1.9 -22 c-0.3 -5.1 -0.9 -16.2 -1.2 -24.5 l-0.7 -15.3 -5.3 0 -5.2 0 -0.6 6.3 c-0.3 3.4 -0.8 14.4 -1.1 24.5 l-0.6 18.2 7.7 0 7.7 0 -0.7 -9.2z m31 -51.6 c-0.3 -0.4 -3.5 -9.1 -7.1 -19.3 -3.7 -10.1 -8.9 -24 -11.6 -30.8 -3.9 -9.8 -4.9 -13.4 -4.7 -17 l0.3 -4.6 7.8 -0.3 c4.2 -0.2 7.7 -0.5 7.7 -0.7 0 -0.7 -15.2 -40.8 -19.1 -50.5 -2.5 -5.9 -3.9 -11 -3.9 -13.7 l0 -4.3 6.3 0 6.4 0 -6.6 -16.7 c-3.7 -9.3 -8.5 -21.5 -10.6 -27.2 -2.2 -5.7 -4.1 -9.7 -4.3 -9 -0.4 1 -15.7 41 -19.9 51.7 -0.4 0.9 1.1 1.2 5.7 1.2 l6.2 0 -0.5 6.3 c-0.4 6.1 -3.8 16.2 -17.1 50 -2.5 6.5 -4.6 12 -4.6 12.2 0 0.2 3.5 0.5 7.8 0.7 l7.7 0.3 -0.1 5.5 c-0.1 4.1 -1.4 9 -5.4 19 -2.9 7.4 -7.5 20 -10.2 28 -2.8 8 -5.7 15.7 -6.4 17.3 l-1.5 2.7 39.1 0 c21.5 0 38.9 -0.4 38.6 -0.8z"/>
  <path d="M163.4 522.7 c-0.3 -0.8 -0.4 -3 -0.2 -4.8 0.2 -2.5 1 -3.7 3 -4.7 3.2 -1.5 3.5 -3.6 4.2 -27.9 l0.4 -16.3 -12.5 0 c-6.8 0 -13.3 -0.5 -14.4 -1 -4 -2.2 -2.6 -7.6 12 -46.7 l3 -8.2 -5.7 -0.3 -5.7 -0.3 -0.3 -4.5 c-0.2 -3.6 1.3 -8.5 7.8 -25.4 4.4 -11.5 8 -21 8 -21.2 0 -0.2 -1.5 -0.4 -3.4 -0.4 -8.1 0 -7.4 -5.5 3.8 -32 4.8 -11.3 10.2 -24.3 11.8 -29 1.7 -4.7 3.5 -9.1 4.1 -9.7 0.5 -0.7 2.9 -1.3 5.3 -1.3 4 0 4.6 0.3 5.9 3.3 0.8 1.7 6.6 15.8 13 31.2 9.9 23.8 11.5 28.6 11.3 32.5 l-0.3 4.5 -4.2 0.3 c-2.4 0.2 -4.3 0.5 -4.3 0.8 0 0.2 3.9 10 8.6 21.8 6.6 16.5 8.5 22.3 8.2 25.3 l-0.3 3.8 -5.7 0.3 c-3.2 0.2 -5.8 0.7 -5.8 1.1 0 0.5 3.6 10.7 8 22.7 8.4 22.7 9.9 30.4 6.4 31.8 -0.9 0.3 -6.9 0.6 -13.5 0.6 l-11.9 0 0 20.9 0 21 2.8 1.3 c2.8 1.4 3.8 4.3 2.8 8.4 l-0.6 2.4 -13.3 -0.2 c-7.2 -0.1 -16.5 0.2 -20.4 0.6 -6.1 0.7 -7.4 0.6 -7.9 -0.7z m25.6 -32.7 l0 -21 -3.5 0 c-3.4 0 -3.5 0.2 -3.6 3.8 -0.1 2 -0.4 11.5 -0.8 21 l-0.6 17.2 4.3 0 4.2 0 0 -21z m24 -32.4 c0 -0.2 -1.1 -3.2 -2.4 -6.7 -6.1 -16.2 -14.6 -41.9 -14.6 -44.1 0 -3.6 1.8 -4.8 7.3 -4.8 3.6 0 4.8 -0.3 4.4 -1.2 -0.4 -0.7 -3.7 -9.2 -7.5 -18.8 -3.8 -9.6 -7.7 -19 -8.6 -20.8 -1 -1.9 -1.6 -4.9 -1.4 -7 0.3 -3.7 0.3 -3.7 5.1 -4 4.1 -0.3 4.8 -0.6 4.2 -2 -0.3 -0.9 -3.8 -9.4 -7.7 -18.8 l-7.2 -17.2 -4.8 11.9 c-2.6 6.5 -6.1 14.9 -7.8 18.5 -1.6 3.7 -3 6.8 -3 7 0 0.2 2 0.4 4.5 0.4 l4.5 0 0 4.8 c0 3.6 -1.4 8.3 -5.6 18.3 -3.1 7.3 -6.9 16.9 -8.4 21.1 l-2.9 7.7 5.7 0.3 5.7 0.3 0.3 4.4 c0.3 3.3 -0.8 7.2 -4.2 16 -4.1 10.7 -12.6 34 -12.6 34.8 0 0.2 12.8 0.3 28.5 0.3 15.7 0 28.5 -0.2 28.5 -0.4z"/>
  <path d="M267.7 521 c-6 -1.8 -5.9 -1.1 -5.1 -27.7 l0.7 -24.3 -11.9 0 c-6.5 0 -12.9 -0.3 -14.1 -0.6 -4.2 -1.1 -3.1 -7.4 5.7 -31.6 4.4 -12.1 8 -22.4 8 -22.9 0 -0.4 -2.6 -0.9 -5.7 -1.1 l-5.8 -0.3 -0.3 -4.3 c-0.2 -3 0.3 -5.3 1.9 -7.8 1.1 -1.9 5.2 -11.5 8.9 -21.2 l6.7 -17.7 -4.1 -0.5 c-4 -0.5 -4.1 -0.6 -4.4 -4.7 -0.3 -3.4 1.9 -9.7 11.4 -34 6.4 -16.4 12.4 -30.6 13.2 -31.5 0.9 -1.1 2.9 -1.8 5.3 -1.8 l3.7 0 4.7 11.3 c2.6 6.1 7.7 18.9 11.2 28.2 3.6 9.4 7.1 18.4 8 20.1 0.8 1.8 1.3 5.1 1.1 7.5 -0.3 4.3 -0.4 4.4 -4 4.7 -2.1 0.2 -3.8 0.7 -3.8 1.1 0 0.4 3.8 10.3 8.5 22.1 11 27.6 11 29 1.5 29 l-5.9 0 3.1 8.3 c8.1 21.9 13.8 39.5 13.8 42.4 0 4.6 -2.1 5.3 -15.9 5.3 l-12.1 0 0 3.3 c0.1 1.7 0.5 12.1 0.9 23 0.5 10.9 0.7 20.6 0.4 21.7 -0.8 2.9 -7.4 5 -15.6 4.9 -3.9 0 -8.5 -0.5 -10 -0.9z m13.9 -10.8 c0.7 -0.5 0.8 -5.5 0.3 -16.7 -0.4 -8.8 -0.8 -17.9 -0.8 -20.2 -0.1 -4.2 -0.2 -4.3 -3.4 -4.3 l-3.4 0 -0.6 20.2 c-0.5 15.4 -0.3 20.4 0.6 21 1.5 1 5.9 1 7.3 0z m24.4 -52.6 c0 -0.7 -14.1 -40.2 -15.6 -43.7 -0.8 -1.9 -1.4 -5.3 -1.2 -7.5 l0.3 -3.9 5.3 -0.3 c2.8 -0.2 5.2 -0.6 5.2 -1.1 0 -1.2 -11.9 -33 -14 -37.4 -1.2 -2.3 -2 -6.1 -2 -8.9 l0 -4.8 4 0 c2.6 0 4 -0.5 4 -1.2 -0.1 -0.7 -3.3 -9.5 -7.3 -19.5 l-7.2 -18.2 -6.8 17.7 c-9 23.2 -8.6 21 -4 21.4 3.8 0.3 3.8 0.3 4.1 5 0.3 3.9 -1 8 -7.7 25 -4.5 11.3 -8.1 20.7 -8.1 21.1 0 0.3 2.1 0.7 4.8 0.9 l4.7 0.3 0.3 4.8 c0.3 3.8 -1.1 8.6 -7.2 25.5 -4.1 11.4 -7.7 21.7 -8.1 23 l-0.6 2.2 28.5 0 c15.7 0 28.6 -0.2 28.6 -0.4z"/>
  <path d="M718.7 406.3 c-0.4 -0.3 -0.7 -2.5 -0.7 -4.7 l0 -4.1 11 -5.3 c19.7 -9.7 43 -26.5 61.9 -44.7 18.9 -18.2 32.5 -36.3 62.5 -83.3 13.1 -20.4 18.5 -29.7 17.8 -30.5 -0.5 -0.7 -5.6 -7 -11.4 -14.2 -14.8 -18.4 -35.2 -45.8 -56.9 -76.2 l-18.6 -26.3 -0.6 6.8 c-0.4 3.7 -2.7 15 -5.2 25.2 -2.5 10.2 -4.5 20.1 -4.5 22.1 0 5.1 2.3 11.2 7.5 19.5 6 9.6 7.5 14.2 7.5 23.3 0 11.4 -2.3 15.4 -17.8 31.4 -13.8 14.2 -15.3 16.4 -18.6 26.7 l-2.1 6.5 -5 0 -5 0 -0.3 -3.7 c-0.4 -5 3 -16.2 6.9 -22.3 1.7 -2.7 8.6 -10.6 15.3 -17.5 11.2 -11.5 15.6 -17.5 15.6 -21.3 0 -2.4 -2.9 -8.5 -7.2 -15.4 -6.4 -10.2 -7.8 -14.8 -7.8 -26.6 0 -8.7 0.7 -12.9 4.5 -28.7 3.9 -16.1 6.8 -33.5 5.3 -32 -2.4 2.4 -32.2 47.6 -55 83.4 -43.2 68 -45.7 71.8 -55.4 85.2 -12.8 17.6 -23.3 30.2 -35 42.1 l-10.1 10.3 -5.7 0 -5.6 0 0 -5 c0 -2.7 0.4 -5 1 -5 1.9 0 14.6 -12.8 25.4 -25.6 15.6 -18.5 26.1 -33.2 45.7 -64.1 9.4 -14.7 17.7 -27.8 18.4 -28.9 1.3 -2 0.9 -2.8 -4.8 -10.5 -3.4 -4.6 -11.4 -16.2 -17.8 -25.6 l-11.6 -17.3 -0.6 8.4 c-0.8 10.4 -5.5 29 -9.4 37.6 -1.6 3.6 -6.6 12.3 -11.1 19.4 -10.2 16.1 -11.8 20.4 -13.2 35.1 -1.3 14.8 -3.7 20.2 -12.7 28.6 -10.6 9.9 -25.9 16.1 -40.2 16.3 l-7.6 0.1 -0.3 -4.1 c-0.4 -5 0.4 -5.7 8.8 -7.3 15.8 -3.1 30 -11.3 36.1 -20.9 3.7 -5.9 4.5 -9 5.7 -22.3 1.2 -13 3.4 -18.7 13 -33.7 9.2 -14.2 11.7 -19.2 14.7 -29.3 2.5 -8.1 5.8 -23.9 5.2 -24.5 -0.2 -0.2 -7.2 9 -15.7 20.3 -25 33.4 -46.6 58.9 -71.9 84.6 -44.4 45.2 -87.1 76.8 -120.6 89.2 -15.3 5.7 -27.4 8.4 -38.3 8.7 l-9.7 0.3 0 -5 0 -5 5 -0.8 c32.4 -5 50.3 -12.5 81.4 -33.7 21.5 -14.7 44.9 -35 71.7 -62.2 30.4 -30.9 43 -45.8 76.4 -90.4 12.7 -17 23.7 -31.7 24.5 -32.6 1 -1.2 2.9 -1.8 5.5 -1.8 3.5 0 4.3 0.4 5.8 3.1 6.8 12.2 35 54.7 39.6 59.7 0.9 0.9 4.7 -4.2 17 -23.5 8.8 -13.7 23.5 -35.9 32.9 -49.6 l16.9 -24.7 4.7 0 4.7 0 9.1 12.3 c5 6.7 16.4 22.6 25.4 35.2 23.3 32.9 49.3 67.4 62.1 82.2 l2.7 3.3 8.3 -11.7 c4.6 -6.5 10.9 -15.1 14.1 -19.1 l5.8 -7.3 4.7 0.3 4.7 0.3 16.8 21 c43.5 54.3 85 94.6 122.8 119.1 9 5.8 18.7 10.9 34.2 17.7 3.7 1.7 3.8 1.8 3.5 6.5 -0.3 4.6 -0.3 4.7 -4 5 -7.3 0.6 -30.4 -10.8 -51.5 -25.5 -34.6 -23.9 -78 -67.2 -117.2 -116.6 -5.1 -6.5 -9.7 -11.5 -10.1 -11 -6.8 7.7 -25.8 35.6 -46 67.3 -31.2 48.9 -43.6 65.7 -62.5 84.5 -19.2 19.2 -41.6 35.8 -63.8 47.5 -9 4.7 -12.3 6 -15.9 6 -2.4 0 -4.8 -0.3 -5.1 -0.7z"/>
  <path d="M615.6 393.4 c-0.8 -2.2 -0.7 -6.7 0.2 -8.1 0.6 -0.9 10.4 -1.6 36 -2.4 19.4 -0.6 35.9 -0.8 36.8 -0.5 1.1 0.4 1.4 1.8 1.2 5.3 l-0.3 4.8 -28.5 1.2 c-41.5 1.6 -44.7 1.6 -45.4 -0.3z"/>
  <path d="M580.4 358.7 c-0.3 -0.8 -0.4 -3.2 -0.2 -5.3 l0.3 -3.9 10 -0.6 c5.5 -0.3 20.4 -0.8 33 -1 l23 -0.4 0 5 0 5 -8.5 0.6 c-4.7 0.4 -19.4 1 -32.7 1.4 -21.2 0.6 -24.4 0.5 -24.9 -0.8z"/>
  <path d="M662.6 349.5 c-0.8 -2.2 -0.7 -6.7 0.2 -8.1 0.5 -0.8 10.4 -1.4 30.1 -1.8 24 -0.6 29.5 -0.5 30.2 0.6 1.1 1.6 1.2 8.5 0.2 9.1 -0.5 0.3 -14.1 0.8 -30.4 1.2 -27.2 0.6 -29.7 0.6 -30.3 -1z"/>
  <path d="M678.1 303.6 c-0.7 -0.8 -1.1 -3.1 -0.9 -5.2 0.3 -3.5 0.6 -3.8 5.3 -5.4 13.1 -4.5 19.5 -10.5 29 -27.3 l6 -10.6 4.8 -0.1 4.7 0 0 5 c0 9.2 -15.5 32.7 -25.4 38.5 -9.4 5.5 -21.1 8 -23.5 5.1z"/>
  <path d="M1300.4 266.6 c-0.3 -0.8 -0.4 -3.1 -0.2 -5.2 l0.3 -3.9 11.6 -0.3 11.7 -0.3 0.6 -3.1 c0.3 -1.7 0.6 -5 0.6 -7.4 l0 -4.3 -45.5 -0.3 -45.5 -0.3 -2.6 -2.7 -2.7 -2.6 -0.1 -68.6 -0.1 -68.5 2.8 -2.8 2.7 -2.8 102.1 -0.3 c70.3 -0.1 103.3 0.1 106.1 0.8 6.9 1.9 6.8 1 6.8 60.3 0 64.6 -0.6 82 -3.1 85 -1.7 2.2 -1.9 2.2 -47.3 2.5 l-45.6 0.3 0 7.4 0 7.4 12.3 0.3 12.2 0.3 0.3 4.4 c0.2 2.8 -0.1 4.7 -1 5.2 -0.7 0.5 -18.1 0.9 -38.6 0.9 -31 0 -37.4 -0.2 -37.8 -1.4z m42.6 -17.1 l0 -7.5 -4 0 -4 0 0 7.5 0 7.5 4 0 4 0 0 -7.5z m92.8 -19.8 c1.7 -2 1.8 -122.3 0.1 -124.3 -1 -1.2 -15.3 -1.4 -97.3 -1.4 -73.5 0 -96.5 0.3 -97.4 1.2 -1.7 1.7 -1.7 122.9 0 124.6 1.8 1.8 193.1 1.7 194.6 -0.1z"/>
  <path d="M1245.2 225.8 c-1.9 -1.9 -1.7 -115.1 0.2 -116.7 1 -0.8 26.4 -1 94.2 -0.9 l92.9 0.3 0.3 57.9 c0.1 41.9 -0.1 58.3 -0.9 59.2 -1.6 1.9 -184.8 2.1 -186.7 0.2z m176.8 -58.3 l0 -48.5 -83.5 0 -83.5 0 0 48.5 0 48.5 83.5 0 83.5 0 0 -48.5z"/>
  <path d="M296.5 207 c-26.2 -1.6 -40.5 -4.3 -42.5 -8 -0.5 -1 -1 -4.2 -1 -6.9 0 -4.7 0.3 -5.3 3.2 -7.1 1.7 -1 5.2 -2.3 7.7 -2.9 2.5 -0.5 8.7 -1.9 13.7 -3 5 -1.2 11.3 -2.1 13.8 -2.1 3.7 0 5.5 -0.6 8.4 -2.9 4.4 -3.4 9.1 -5.1 14.3 -5.1 2.6 0 3.9 -0.5 3.9 -1.3 0 -0.8 1.4 -3.3 3.1 -5.6 4.3 -6 10 -8.3 22 -8.9 13 -0.6 19.5 1.4 26.2 8 4.2 4.2 5.3 4.8 9 4.8 4.1 0 11.7 2.8 14.7 5.4 0.8 0.7 4.9 1.6 9.1 1.9 5.1 0.3 9.1 1.3 12 2.8 3.3 1.7 7.6 2.6 16.9 3.5 20.9 2 25 3.9 25 11.7 0 2.3 -0.7 5.2 -1.5 6.5 -2.5 3.5 -14 6.1 -37 8.3 -14.2 1.3 -102.8 2 -121 0.9z m98.5 -11 c19.8 -1.1 35.8 -2.8 37.9 -4 0.9 -0.4 -3.1 -1.1 -9.5 -1.5 -8.8 -0.6 -11.9 -1.2 -15.9 -3.3 -4.2 -2.1 -6.2 -2.5 -12.4 -2.4 -6.9 0.2 -7.5 0 -10.8 -2.9 -4.5 -3.9 -7.2 -4.9 -13.7 -4.9 -4.9 0 -5.4 -0.2 -8.8 -4.4 -6.7 -8 -16 -10.5 -24.3 -6.7 -4.7 2.1 -6.6 4.2 -9.1 9.6 -1.9 3.9 -2.1 4 -7.9 4.5 -5.9 0.6 -14 3.9 -14.7 6.1 -0.2 0.6 -4.2 1.5 -9.3 2 -5 0.4 -11 1.5 -13.4 2.3 -2.4 0.9 -5.8 1.6 -7.5 1.7 -2.7 0 -2.9 0.1 -1 0.9 2.1 0.8 22.3 2.7 35.9 3.3 15.7 0.8 68.9 0.6 84.5 -0.3z"/>
  <path d="M980.9 172.7 c-11.5 -3.9 -18.5 -10.1 -23.1 -20.4 -3.3 -7.2 -3.7 -22.9 -0.9 -32 3.4 -11.3 12.9 -22.1 24.3 -27.9 7.8 -3.9 15.2 -5.4 27.8 -5.4 l11.5 0 2.5 -5.7 c1.5 -3.7 4.6 -7.9 8.5 -11.8 10.5 -10.5 20.9 -14.5 37.8 -14.5 17.2 0 29.6 4.8 39 15 2.9 3.1 6.6 8.3 8.2 11.6 l3 6.1 10.1 0.5 c8.7 0.4 11 0.9 16.9 3.7 12.8 5.9 20.7 14.7 24.1 26.5 2.1 7.6 1.5 23.8 -1.2 30.9 -3.8 9.7 -13 19.1 -23.1 23.2 -4.6 1.9 -7.6 2 -81.8 2.2 l-77 0.3 -6.6 -2.3z m156.3 -10.7 c10.8 -3.3 19 -11.9 22.3 -23.4 2.1 -7 1.4 -12.1 -2.8 -19.9 -3.8 -7.2 -9.1 -12 -17.6 -16.1 -6.3 -3 -7.1 -3.1 -17.8 -2.9 l-11.1 0.3 -1.6 -4.7 c-6.5 -18.9 -26.8 -31.9 -44.9 -28.5 -15.9 3 -28.8 14.4 -32.7 29.1 l-1.1 4.3 -6.7 -0.6 c-3.7 -0.3 -9.5 -0.9 -12.9 -1.2 -18.5 -1.8 -39.2 13.6 -43.4 32.2 -2.1 9.3 3.3 21.2 12.2 27.1 9.7 6.4 7.5 6.2 83 6.3 65.9 0 69 -0.1 75.1 -2z"/>
  <path d="M554.8 111.1 c-2.2 -4 -6.3 -6.4 -11.7 -7.1 l-4.6 -0.5 0 -5 0 -5 6.9 -0.3 c5.1 -0.2 7.8 0.2 10.6 1.6 l3.7 1.8 3.2 -2.6 c4.1 -3.5 9.3 -5 16.8 -5 6.7 0 8.3 1.1 8.3 5.7 0 3.5 -2.1 5.3 -6.3 5.3 -3.3 0 -8.8 2.4 -10.9 4.7 -1 1 -2.4 3.5 -3.3 5.6 -1.5 3.5 -1.7 3.7 -6.3 3.7 -4.1 0 -4.9 -0.4 -6.4 -2.9z"/>
 </g>
</svg>
